<svg width="26" height="29" viewBox="0 0 26 29" fill="none" xmlns="http://www.w3.org/2000/svg">
<g filter="url(#filter0_d_2202_84)">
<path d="M12.9643 4.85958C14.3765 4.85958 15.7571 5.27836 16.9313 6.06297C18.1056 6.84757 19.0208 7.96277 19.5612 9.26752C20.1017 10.5723 20.2431 12.008 19.9676 13.3931C19.6921 14.7782 19.012 16.0505 18.0134 17.0492C17.0148 18.0478 15.7424 18.7278 14.3573 19.0034C12.9722 19.2789 11.5365 19.1375 10.2317 18.597C8.92697 18.0566 7.81178 17.1414 7.02717 15.9671C6.24257 14.7929 5.82378 13.4123 5.82378 12.0001C5.8311 10.1085 6.58574 8.29658 7.92326 6.95906C9.26079 5.62154 11.0728 4.86689 12.9643 4.85958ZM12.9643 3.2728C11.2397 3.27986 9.55592 3.79769 8.12543 4.76093C6.69494 5.72418 5.58191 7.08964 4.92683 8.68495C4.27176 10.2803 4.10401 12.0339 4.44478 13.7245C4.78554 15.415 5.61954 16.9667 6.84148 18.1837C8.06342 19.4007 9.61852 20.2283 11.3105 20.5622C13.0024 20.896 14.7553 20.7211 16.348 20.0595C17.9406 19.398 19.3015 18.2794 20.2589 16.845C21.2163 15.4105 21.7272 13.7246 21.7273 12.0001C21.7273 10.851 21.5003 9.7132 21.0595 8.65202C20.6187 7.59085 19.9727 6.62717 19.1585 5.8163C18.3443 5.00543 17.378 4.36333 16.315 3.92685C15.2521 3.49037 14.1134 3.2681 12.9643 3.2728Z" fill="#4EA8DE"/>
</g>
<defs>
<filter id="filter0_d_2202_84" x="-3" y="0" width="32" height="32" filterUnits="userSpaceOnUse" color-interpolation-filters="sRGB">
<feFlood flood-opacity="0" result="BackgroundImageFix"/>
<feColorMatrix in="SourceAlpha" type="matrix" values="0 0 0 0 0 0 0 0 0 0 0 0 0 0 0 0 0 0 127 0" result="hardAlpha"/>
<feOffset dy="4"/>
<feGaussianBlur stdDeviation="2"/>
<feComposite in2="hardAlpha" operator="out"/>
<feColorMatrix type="matrix" values="0 0 0 0 0 0 0 0 0 0 0 0 0 0 0 0 0 0 0.25 0"/>
<feBlend mode="normal" in2="BackgroundImageFix" result="effect1_dropShadow_2202_84"/>
<feBlend mode="normal" in="SourceGraphic" in2="effect1_dropShadow_2202_84" result="shape"/>
</filter>
</defs>
</svg>
